PathFileType	4	(X/Y/Z)	C:\Users\86182\Documents\cortex\Trimmed_M1_L6.trc
DataRate	CameraRate	NumFrames	NumMarkers	Units	OrigDataRate	OrigDataStartFrame	OrigNumFrames
100.00	100.00	       127	2	mm	100.00	181	       901
Frame#	Time	gripper			box			
		X1	Y1	Z1	X2	Y2	Z2	

181	1.800	198.60048	193.79988	212.29143	201.53966	192.73511	76.99817	
182	1.810	198.73067	193.73766	212.74715	201.72374	192.55994	77.29526	
183	1.820	198.62892	193.69005	213.16574	201.68021	192.57484	77.56770	
184	1.830	198.49904	193.69411	213.52832	201.68954	192.59180	78.18060	
185	1.840	198.71362	193.77736	213.96794	201.79585	192.54948	78.45087	
186	1.850	198.76143	193.74342	214.48883	201.57713	192.66000	79.07237	
187	1.860	198.81735	193.76093	214.84120	201.66685	192.61487	79.43314	
188	1.870	198.79802	193.76715	215.32901	201.88403	192.53566	79.91927	
189	1.880	198.81190	193.77954	215.80359	201.84578	192.74005	80.23173	
190	1.890	198.75491	193.73657	216.14676	201.97766	192.68884	80.53397	
191	1.900	198.82117	193.79079	216.49174	201.63739	192.58807	81.21964	
192	1.910	198.91386	193.76436	216.98299	201.12796	193.26411	82.21005	
193	1.920	198.93217	193.78891	217.43539	201.82684	192.68961	82.02938	
194	1.930	198.73094	193.74789	217.84456	201.80534	192.83150	82.28849	
195	1.940	198.79111	193.79524	218.11932	201.62968	192.73737	82.74878	
196	1.950	198.81110	193.92221	218.68130	201.55122	192.63736	83.38523	
197	1.960	198.74405	193.85733	219.21902	201.59032	192.68987	83.56016	
198	1.970	198.75072	193.80174	219.50426	201.65909	192.69321	83.98625	
199	1.980	198.71886	193.78156	219.89818	201.62897	192.79498	84.46869	
200	1.990	198.81638	193.79559	220.36104	201.51184	192.67535	85.02109	
201	2.000	198.78149	193.83662	220.71681	201.32140	192.74593	85.37318	
202	2.010	198.50792	193.90295	221.19759	201.67769	192.66292	85.67191	
203	2.020	198.65215	193.84062	221.52432	201.64633	192.63824	86.04981	
204	2.030	198.74304	193.75929	222.07971	200.89525	193.35156	87.22198	
205	2.040	198.78943	193.84097	222.41362	201.38118	192.78183	87.18695	
206	2.050	198.58640	193.88271	222.94446	201.43951	192.85042	87.57983	
207	2.060	198.55458	193.96492	223.59161	201.45638	192.69415	88.03654	
208	2.070	198.59941	193.89281	223.85355	201.69414	192.80557	88.40926	
209	2.080	198.87611	193.90335	224.19330	201.46735	192.94260	88.81026	
210	2.090	198.83624	193.96526	224.74687	201.30688	192.94658	89.38652	
211	2.100	198.57030	194.00830	225.26193	201.39867	192.85495	89.88311	
212	2.110	198.55280	193.97169	225.64632	201.50298	192.96291	90.21535	
213	2.120	198.67467	194.00847	225.84114	201.36208	192.92332	90.42970	
214	2.130	198.79147	193.96332	226.39006	201.55116	192.87109	90.80636	
215	2.140	198.66225	193.92308	226.82690	201.27615	192.86481	91.60692	
216	2.150	198.52486	193.96233	227.21898	201.41937	192.88539	91.85371	
217	2.160	198.56032	194.05887	227.57320	201.44247	192.89056	92.19251	
218	2.170	198.89761	194.06271	228.07443	201.34645	192.88876	92.53687	
219	2.180	198.68524	193.93687	228.37418	201.27429	192.84084	92.92577	
220	2.190	198.62032	193.91258	228.79309	201.16737	192.87036	93.57121	
221	2.200	198.64539	193.94632	229.43546	201.46904	192.91429	93.90654	
222	2.210	198.64908	193.99864	229.86992	201.48145	192.92657	94.31679	
223	2.220	198.58740	193.99358	230.21008	201.42630	192.96428	94.92703	
224	2.230	198.42201	193.99104	230.66910	201.38533	192.93323	95.14330	
225	2.240	198.61107	193.97015	231.15349	201.11079	193.07132	95.68587	
226	2.250	198.53693	193.86447	231.65369	201.25346	192.95056	96.04775	
227	2.260	198.43825	193.90631	231.97253	201.53658	192.94463	96.53107	
228	2.270	198.26277	193.82616	232.57010	201.41672	193.04120	97.00504	
229	2.280	198.30479	193.86520	232.99315	201.25952	193.06139	97.47710	
230	2.290	198.28981	193.85274	233.22775	201.13187	193.06430	97.84250	
231	2.300	198.35933	193.88074	233.61423	200.99045	192.83316	98.14404	
232	2.310	198.32715	193.83722	234.19933	201.04405	192.85344	98.60086	
233	2.320	198.30949	193.91663	234.63606	201.20610	192.84077	98.87225	
234	2.330	198.18896	193.82797	234.88820	200.93117	192.73907	99.59461	
235	2.340	197.99246	193.63754	235.30122	201.00330	192.80042	99.83174	
236	2.350	198.08969	193.78038	235.84247	201.06203	192.92737	100.40489	
237	2.360	198.25058	193.85741	236.33954	200.96013	192.78316	100.66362	
238	2.370	198.27415	193.86542	236.67590	201.00737	192.75931	100.99685	
239	2.380	198.15636	193.67430	237.08955	200.92987	192.92261	101.73004	
240	2.390	198.47014	193.83083	237.46985	201.20963	192.90474	102.10529	
241	2.400	198.24530	193.91669	237.87433	201.12526	192.84979	102.67300	
242	2.410	198.19490	193.76662	238.54820	201.14482	192.85426	102.90237	
243	2.420	198.40503	193.87364	239.05234	201.36298	193.00253	103.38329	
244	2.430	198.57227	193.92676	239.26279	201.03775	192.93483	104.00256	
245	2.440	198.21370	193.77934	239.80984	201.17001	192.96915	104.39635	
246	2.450	198.22346	193.91679	240.38594	201.31195	193.04085	104.83396	
247	2.460	198.28040	194.04703	240.78050	201.39560	193.08034	105.24609	
248	2.470	198.38429	193.98534	241.14139	201.00806	193.00488	105.68568	
249	2.480	198.22414	193.82854	241.51039	200.99034	193.02188	106.03843	
250	2.490	198.23331	193.88998	242.01653	200.84764	192.91647	106.43301	
251	2.500	198.22159	194.06369	242.41191	201.04831	192.95355	106.95345	
252	2.510	198.03851	193.96162	242.82442	201.22537	193.00198	107.28936	
253	2.520	198.11230	193.92529	243.20348	200.88582	192.79535	107.74934	
254	2.530	198.18217	193.96126	243.65410	200.74998	192.81046	108.09825	
255	2.540	198.29909	193.91757	244.02672	200.75580	192.83061	108.41097	
256	2.550	198.07796	193.94258	244.42056	200.88420	192.85271	109.03190	
257	2.560	198.11299	193.95235	244.87282	201.06635	192.85637	109.38245	
258	2.570	198.11003	193.99397	245.42599	200.84689	192.79984	109.87344	
259	2.580	198.14207	193.88492	245.79608	200.87549	192.81807	110.21235	
260	2.590	198.34526	193.90858	246.18793	200.92403	192.91014	110.68936	
261	2.600	198.30229	193.98380	246.64525	200.98286	192.89883	111.11369	
262	2.610	198.19249	193.91891	247.06203	201.16505	192.92993	111.50939	
263	2.620	198.16045	194.08745	247.47130	200.93797	192.98431	112.20437	
264	2.630	198.33324	194.02267	247.99202	200.98894	192.81694	112.56731	
265	2.640	198.33765	193.96367	248.35139	200.97012	192.82155	112.94669	
266	2.650	198.31398	193.89938	248.71567	200.98274	192.90077	113.13946	
267	2.660	198.32846	194.07944	249.18115	200.98270	192.96249	113.68102	
268	2.670	198.22900	194.02805	249.77122	200.93661	192.83098	114.37775	
269	2.680	198.19849	193.97174	250.07527	200.82031	192.85875	114.63454	
270	2.690	198.19327	193.93138	250.29688	201.04797	192.78192	114.78417	
271	2.700	198.38229	194.07591	250.79701	200.99821	192.96371	115.24240	
272	2.710	198.14552	194.03642	251.30382	200.83392	192.79976	115.79434	
273	2.720	198.16757	193.96323	251.56975	200.67220	192.87759	116.28946	
274	2.730	198.14140	194.06845	252.00656	200.75514	192.96161	116.54989	
275	2.740	198.18633	193.99005	252.43733	200.83565	192.87766	116.84509	
276	2.750	198.18120	194.04614	253.04131	201.06441	192.72522	117.39847	
277	2.760	198.18065	194.10518	253.34311	200.73325	192.82751	117.88097	
278	2.770	198.16943	194.09116	253.78470	200.73480	192.94385	118.18041	
279	2.780	198.15820	194.09975	254.30118	200.72499	192.92090	118.85822	
280	2.790	198.24333	194.11293	254.55254	200.79691	192.98521	119.31710	
281	2.800	198.09340	194.20396	255.14787	200.91998	192.99062	119.45825	
282	2.810	198.22600	194.15836	255.65286	200.76091	193.03391	120.01467	
283	2.820	198.16098	194.16345	256.05298	200.57910	192.91808	120.57566	
284	2.830	198.14536	194.22398	256.41895	200.81879	193.10536	121.04108	
285	2.840	198.06618	194.20198	256.89554	200.87737	193.12320	121.36921	
286	2.850	198.15590	194.23111	257.39325	200.67111	193.14049	121.75260	
287	2.860	197.96233	194.29359	257.73346	200.49486	193.00296	122.50616	
288	2.870	197.97917	194.29002	258.04984	200.68507	193.08502	122.71073	
289	2.880	198.07402	194.25800	258.63956	200.73038	193.13609	122.90436	
290	2.890	198.04828	194.20241	259.01755	200.73439	193.09007	123.32281	
291	2.900	197.80080	194.29868	259.44977	200.59964	193.18816	124.14032	
292	2.910	198.03447	194.41740	259.75320	200.43234	193.23326	124.50277	
293	2.920	197.94594	194.28539	260.21136	200.40776	193.30914	124.64695	
294	2.930	197.97354	194.25974	260.57321	200.54099	193.06871	125.15262	
295	2.940	197.87921	194.31154	260.97379	200.82259	193.10306	125.54791	
296	2.950	198.00351	194.40840	261.57437	200.54716	193.26497	126.14734	
297	2.960	197.97441	194.35168	261.95950	200.46262	193.28482	126.51567	
298	2.970	197.90625	194.29210	262.26288	200.45416	193.19397	126.80294	
299	2.980	198.24875	194.40132	262.81760	200.53600	193.21599	127.34034	
300	2.990	198.00934	194.37439	263.39716	200.83302	193.25502	127.64290	
301	3.000	197.88181	194.42375	263.79993	200.41931	193.22031	128.21703	
302	3.010	197.94891	194.41331	263.94943	200.40849	193.24013	128.75848	
303	3.020	198.09178	194.42537	264.61819	200.68228	193.29646	129.05643	
304	3.030	197.95799	194.34038	265.00418	200.64250	193.40723	129.40331	
305	3.040	198.02196	194.36238	265.38733	200.37393	193.41039	129.93808	
306	3.050	198.07854	194.56317	265.98627	200.32278	193.25946	130.43948	
307	3.060	197.83762	194.38521	266.39398	200.49760	193.41096	130.90598	
